<svg width="108" height="122" viewBox="0 0 108 122" fill="none" xmlns="http://www.w3.org/2000/svg">
<path d="M54.1212 61.0925C69.3346 61.0925 81.6675 48.7596 81.6675 33.5463C81.6675 18.3329 69.3346 6 54.1212 6C38.9078 6 26.575 18.3329 26.575 33.5463C26.575 48.7596 38.9078 61.0925 54.1212 61.0925Z" stroke="#EB996E" stroke-width="11.0185"/>
<path d="M81.6681 72.111H83.6057C91.9406 72.111 98.9716 78.3177 100.006 86.5888L102.157 103.8C102.979 110.376 97.851 116.185 91.2233 116.185H17.0201C10.3925 116.185 5.26467 110.376 6.08671 103.8L8.23807 86.5888C9.27194 78.3177 16.3029 72.111 24.6382 72.111H26.5756" stroke="#EB996E" stroke-width="11.0185" stroke-linecap="round" stroke-linejoin="round"/>
</svg>
